<svg xmlns="http://www.w3.org/2000/svg" xmlns:xlink="http://www.w3.org/1999/xlink" width="500" zoomAndPan="magnify" viewBox="0 0 375 374.999991" height="500" preserveAspectRatio="xMidYMid meet" version="1.0"><defs><g/><clipPath id="11e1ae56e2"><path d="M 230.757812 196.824219 L 335.285156 196.824219 L 335.285156 206.667969 L 230.757812 206.667969 Z M 26.800781 196.824219 L 131.332031 196.824219 L 131.332031 206.667969 L 26.800781 206.667969 Z M 26.800781 196.824219 " clip-rule="nonzero"/></clipPath></defs><g fill="#a2abb0" fill-opacity="1"><g transform="translate(21.655197, 181.324709)"><g><path d="M 46.84375 -10.265625 C 46.84375 -6.734375 45.769531 -4.066406 43.625 -2.265625 C 41.488281 -0.460938 38.957031 0.4375 36.03125 0.4375 C 33.15625 0.4375 30.660156 -0.460938 28.546875 -2.265625 C 26.441406 -4.066406 25.390625 -6.734375 25.390625 -10.265625 L 25.390625 -56.1875 L 12.484375 -56.1875 C 9.054688 -56.1875 6.40625 -57.257812 4.53125 -59.40625 C 2.664062 -61.550781 1.734375 -64.097656 1.734375 -67.046875 C 1.734375 -70.003906 2.664062 -72.550781 4.53125 -74.6875 C 6.40625 -76.832031 9.054688 -77.90625 12.484375 -77.90625 L 59.546875 -77.90625 C 62.960938 -77.90625 65.625 -76.832031 67.53125 -74.6875 C 69.445312 -72.550781 70.40625 -70.003906 70.40625 -67.046875 C 70.40625 -64.097656 69.445312 -61.550781 67.53125 -59.40625 C 65.625 -57.257812 62.960938 -56.1875 59.546875 -56.1875 L 46.84375 -56.1875 Z M 46.84375 -10.265625 "/></g></g></g><g fill="#a2abb0" fill-opacity="1"><g transform="translate(94.41371, 181.324709)"><g><path d="M 36.09375 -21.5625 L 74.71875 -21.5625 C 78.144531 -21.5625 80.796875 -20.515625 82.671875 -18.421875 C 84.546875 -16.335938 85.484375 -13.816406 85.484375 -10.859375 C 85.484375 -7.910156 84.546875 -5.363281 82.671875 -3.21875 C 80.796875 -1.070312 78.144531 0 74.71875 0 L 16.15625 0 L 16.15625 -0.21875 C 15.4375 -0.0390625 14.695312 0.046875 13.9375 0.046875 C 11.125 0.0859375 8.601562 -0.828125 6.375 -2.703125 C 4.144531 -4.609375 2.796875 -6.9375 2.328125 -9.6875 C 1.859375 -12.445312 2.773438 -15.179688 5.078125 -17.890625 L 51.703125 -73.921875 C 53.898438 -76.546875 56.40625 -77.894531 59.21875 -77.96875 C 59.6875 -77.96875 60.15625 -77.945312 60.625 -77.90625 L 74.71875 -77.90625 C 78.144531 -77.90625 80.796875 -76.832031 82.671875 -74.6875 C 84.546875 -72.550781 85.484375 -70.003906 85.484375 -67.046875 C 85.484375 -64.097656 84.546875 -61.550781 82.671875 -59.40625 C 80.796875 -57.257812 78.144531 -56.1875 74.71875 -56.1875 L 64.953125 -56.1875 L 58.78125 -48.796875 L 75.3125 -48.796875 C 78.414062 -48.796875 80.832031 -47.820312 82.5625 -45.875 C 84.289062 -43.925781 85.15625 -41.617188 85.15625 -38.953125 C 85.15625 -36.285156 84.289062 -33.976562 82.5625 -32.03125 C 80.832031 -30.09375 78.414062 -29.125 75.3125 -29.125 L 42.421875 -29.125 Z M 36.09375 -21.5625 "/></g></g></g><g fill="#29475e" fill-opacity="1"><g transform="translate(184.24593, 181.324709)"><g><path d="M 28.46875 -21.390625 L 57.65625 -21.390625 C 60.925781 -21.390625 63.425781 -20.34375 65.15625 -18.25 C 66.882812 -16.164062 67.75 -13.664062 67.75 -10.75 C 67.75 -7.832031 66.882812 -5.3125 65.15625 -3.1875 C 63.425781 -1.0625 60.925781 0 57.65625 0 L 13.34375 0 C 6.320312 0 2.8125 -3.582031 2.8125 -10.75 L 2.75 -38.421875 L 3.03125 -43.21875 C 3.382812 -46.46875 4.117188 -49.675781 5.234375 -52.84375 C 6.890625 -57.59375 9.421875 -61.8125 12.828125 -65.5 C 16.234375 -69.195312 20.4375 -72.1875 25.4375 -74.46875 C 30.445312 -76.757812 36.359375 -77.90625 43.171875 -77.90625 L 54.734375 -77.90625 C 56.535156 -77.90625 58.109375 -77.585938 59.453125 -76.953125 C 60.804688 -76.328125 61.953125 -75.5 62.890625 -74.46875 C 63.828125 -73.445312 64.53125 -72.285156 65 -70.984375 C 65.46875 -69.691406 65.703125 -68.34375 65.703125 -66.9375 C 65.703125 -65.539062 65.46875 -64.175781 65 -62.84375 C 64.53125 -61.507812 63.828125 -60.347656 62.890625 -59.359375 C 61.953125 -58.367188 60.804688 -57.554688 59.453125 -56.921875 C 58.109375 -56.285156 56.535156 -55.96875 54.734375 -55.96875 L 41.5 -55.96875 C 38.46875 -55.96875 35.84375 -55.488281 33.625 -54.53125 C 31.414062 -53.582031 29.519531 -52.097656 27.9375 -50.078125 C 26.351562 -48.066406 25.378906 -44.898438 25.015625 -40.578125 C 24.648438 -36.285156 24.5625 -30.773438 24.75 -24.046875 C 25.070312 -22.390625 26.3125 -21.503906 28.46875 -21.390625 Z M 28.46875 -21.390625 "/></g></g></g><g fill="#29475e" fill-opacity="1"><g transform="translate(253.115348, 181.324709)"><g><path d="M 50.359375 -28.640625 C 50.285156 -28.671875 50.210938 -28.707031 50.140625 -28.75 L 25.828125 -28.75 L 25.828125 -10.265625 C 25.828125 -6.734375 24.765625 -4.066406 22.640625 -2.265625 C 20.515625 -0.460938 17.972656 0.4375 15.015625 0.4375 C 12.140625 0.4375 9.644531 -0.460938 7.53125 -2.265625 C 5.425781 -4.066406 4.375 -6.734375 4.375 -10.265625 L 4.375 -67.59375 C 4.375 -71.007812 5.425781 -73.632812 7.53125 -75.46875 C 9.644531 -77.3125 12.140625 -78.234375 15.015625 -78.234375 C 17.972656 -78.234375 20.515625 -77.3125 22.640625 -75.46875 C 24.765625 -73.632812 25.828125 -71.007812 25.828125 -67.59375 L 25.828125 -49.546875 C 26.148438 -49.296875 26.707031 -49.113281 27.5 -49 L 49.4375 -49 C 49.832031 -49.070312 50.140625 -49.179688 50.359375 -49.328125 L 50.359375 -67.59375 C 50.359375 -71.007812 51.410156 -73.632812 53.515625 -75.46875 C 55.617188 -77.3125 58.113281 -78.234375 61 -78.234375 C 63.914062 -78.234375 66.445312 -77.3125 68.59375 -75.46875 C 70.738281 -73.632812 71.8125 -71.007812 71.8125 -67.59375 L 71.8125 -10.265625 C 71.8125 -6.734375 70.738281 -4.066406 68.59375 -2.265625 C 66.445312 -0.460938 63.914062 0.4375 61 0.4375 C 58.113281 0.4375 55.617188 -0.460938 53.515625 -2.265625 C 51.410156 -4.066406 50.359375 -6.734375 50.359375 -10.265625 Z M 50.359375 -28.640625 "/></g></g></g><g fill="#a2abb0" fill-opacity="1"><g transform="translate(152.664886, 267.171121)"><g><path d="M 26.5 -32.53125 L 15.421875 -32.53125 C 15.191406 -32.46875 15.015625 -32.382812 14.890625 -32.28125 L 14.890625 -27.3125 C 15.160156 -27.125 15.660156 -27 16.390625 -26.9375 L 26 -26.9375 C 26.394531 -27 26.6875 -27.082031 26.875 -27.1875 L 26.875 -32.375 C 26.769531 -32.4375 26.644531 -32.488281 26.5 -32.53125 Z M 14.890625 -15.015625 L 14.890625 -6.28125 C 14.890625 -4.21875 14.269531 -2.664062 13.03125 -1.625 C 11.789062 -0.582031 10.347656 -0.0625 8.703125 -0.0625 C 7.023438 -0.0625 5.578125 -0.582031 4.359375 -1.625 C 3.140625 -2.664062 2.53125 -4.21875 2.53125 -6.28125 L 2.53125 -38.8125 C 2.53125 -43.007812 4.585938 -45.109375 8.703125 -45.109375 L 32.9375 -45.109375 C 34.914062 -45.109375 36.445312 -44.488281 37.53125 -43.25 C 38.613281 -42.007812 39.132812 -40.207031 39.09375 -37.84375 L 39.09375 -21.046875 C 39.09375 -19.046875 38.5 -17.539062 37.3125 -16.53125 C 36.125 -15.519531 34.707031 -15.015625 33.0625 -15.015625 Z M 14.890625 -15.015625 "/></g></g></g><g fill="#a2abb0" fill-opacity="1"><g transform="translate(193.156977, 267.171121)"><g><path d="M 32.09375 -17.421875 L 38.8125 -8.890625 C 40.070312 -7.253906 40.460938 -5.710938 39.984375 -4.265625 C 39.515625 -2.816406 38.625 -1.675781 37.3125 -0.84375 C 35.957031 0.0078125 34.535156 0.328125 33.046875 0.109375 C 31.554688 -0.109375 30.1875 -1.03125 28.9375 -2.65625 L 17.078125 -17.765625 C 16.097656 -19.328125 15.828125 -20.835938 16.265625 -22.296875 C 16.578125 -23.398438 17.054688 -24.332031 17.703125 -25.09375 C 17.742188 -25.132812 17.773438 -25.175781 17.796875 -25.21875 C 18.734375 -26.09375 19.867188 -26.582031 21.203125 -26.6875 L 23.140625 -26.6875 L 26.625 -26.71875 C 28.269531 -26.632812 29.53125 -26.613281 30.40625 -26.65625 L 24.4375 -33.15625 L 15.109375 -33.15625 C 14.859375 -33.09375 14.671875 -33 14.546875 -32.875 L 14.546875 -32.15625 L 14.515625 -32.15625 L 14.515625 -6.25 L 14.484375 -6.25 C 14.484375 -2.082031 12.398438 0 8.234375 0 C 4.472656 0 2.59375 -2.113281 2.59375 -6.34375 L 2.59375 -38.8125 C 2.59375 -43.007812 4.363281 -45.109375 7.90625 -45.109375 L 26.03125 -45.109375 C 27.613281 -45.109375 29.726562 -43.921875 32.375 -41.546875 L 37.84375 -34.75 C 39.75 -32.226562 40.660156 -30.03125 40.578125 -28.15625 C 40.640625 -27.59375 40.640625 -27.082031 40.578125 -26.625 L 40.578125 -23.390625 C 40.578125 -21.390625 39.957031 -19.894531 38.71875 -18.90625 C 37.488281 -17.914062 36.050781 -17.421875 34.40625 -17.421875 Z M 32.09375 -17.421875 "/></g></g></g><g fill="#a2abb0" fill-opacity="1"><g transform="translate(235.212468, 267.171121)"><g><path d="M 14.890625 -5.9375 C 14.890625 -3.894531 14.273438 -2.351562 13.046875 -1.3125 C 11.816406 -0.269531 10.367188 0.25 8.703125 0.25 C 6.984375 0.25 5.515625 -0.269531 4.296875 -1.3125 C 3.078125 -2.351562 2.46875 -3.894531 2.46875 -5.9375 L 2.46875 -39.125 C 2.46875 -41.113281 3.078125 -42.640625 4.296875 -43.703125 C 5.515625 -44.765625 6.984375 -45.296875 8.703125 -45.296875 C 10.367188 -45.296875 11.816406 -44.765625 13.046875 -43.703125 C 14.273438 -42.640625 14.890625 -41.113281 14.890625 -39.125 Z M 14.890625 -5.9375 "/></g></g></g><g fill="#a2abb0" fill-opacity="1"><g transform="translate(252.75383, 267.171121)"><g><path d="M 16.484375 -12.390625 L 33.375 -12.390625 C 35.269531 -12.390625 36.71875 -11.785156 37.71875 -10.578125 C 38.71875 -9.367188 39.21875 -7.914062 39.21875 -6.21875 C 39.21875 -4.53125 38.71875 -3.070312 37.71875 -1.84375 C 36.71875 -0.613281 35.269531 0 33.375 0 L 7.71875 0 C 3.65625 0 1.625 -2.070312 1.625 -6.21875 L 1.59375 -22.234375 L 1.75 -25.03125 C 1.957031 -26.90625 2.382812 -28.757812 3.03125 -30.59375 C 3.988281 -33.34375 5.453125 -35.785156 7.421875 -37.921875 C 9.398438 -40.066406 11.835938 -41.800781 14.734375 -43.125 C 17.628906 -44.445312 21.050781 -45.109375 25 -45.109375 L 31.6875 -45.109375 C 32.726562 -45.109375 33.640625 -44.925781 34.421875 -44.5625 C 35.203125 -44.195312 35.863281 -43.71875 36.40625 -43.125 C 36.945312 -42.53125 37.351562 -41.851562 37.625 -41.09375 C 37.894531 -40.34375 38.03125 -39.5625 38.03125 -38.75 C 38.03125 -37.9375 37.894531 -37.144531 37.625 -36.375 C 37.351562 -35.601562 36.945312 -34.929688 36.40625 -34.359375 C 35.863281 -33.785156 35.203125 -33.316406 34.421875 -32.953125 C 33.640625 -32.585938 32.726562 -32.40625 31.6875 -32.40625 L 24.03125 -32.40625 C 22.269531 -32.40625 20.75 -32.128906 19.46875 -31.578125 C 18.1875 -31.023438 17.085938 -30.164062 16.171875 -29 C 15.253906 -27.832031 14.691406 -25.992188 14.484375 -23.484375 C 14.273438 -21.003906 14.222656 -17.816406 14.328125 -13.921875 C 14.515625 -12.960938 15.234375 -12.453125 16.484375 -12.390625 Z M 16.484375 -12.390625 "/></g></g></g><g fill="#a2abb0" fill-opacity="1"><g transform="translate(292.62056, 267.171121)"><g><path d="M 17.609375 -12.484375 L 33.09375 -12.484375 C 35.070312 -12.484375 36.601562 -11.878906 37.6875 -10.671875 C 38.769531 -9.460938 39.3125 -8 39.3125 -6.28125 C 39.3125 -4.570312 38.769531 -3.097656 37.6875 -1.859375 C 36.601562 -0.617188 35.070312 0 33.09375 0 L 8.859375 0 C 6.117188 0 4.289062 -0.925781 3.375 -2.78125 C 2.8125 -3.71875 2.53125 -4.882812 2.53125 -6.28125 L 2.53125 -38.8125 C 2.53125 -43.007812 4.585938 -45.109375 8.703125 -45.109375 L 32.9375 -45.109375 C 34.914062 -45.109375 36.445312 -44.488281 37.53125 -43.25 C 38.613281 -42.007812 39.15625 -40.53125 39.15625 -38.8125 C 39.15625 -37.101562 38.613281 -35.628906 37.53125 -34.390625 C 36.445312 -33.148438 34.914062 -32.53125 32.9375 -32.53125 L 17.671875 -32.53125 C 16.316406 -32.488281 15.492188 -31.820312 15.203125 -30.53125 L 15.203125 -29.75 C 15.429688 -28.769531 16.128906 -28.25 17.296875 -28.1875 L 30.1875 -28.1875 C 32.125 -28.1875 33.601562 -27.597656 34.625 -26.421875 C 35.644531 -25.242188 36.15625 -23.847656 36.15625 -22.234375 C 36.15625 -20.609375 35.644531 -19.207031 34.625 -18.03125 C 33.601562 -16.851562 32.125 -16.265625 30.1875 -16.265625 L 16.734375 -16.265625 C 15.648438 -16.203125 15.035156 -15.609375 14.890625 -14.484375 L 14.890625 -13.703125 C 15.203125 -12.722656 16.109375 -12.316406 17.609375 -12.484375 Z M 17.609375 -12.484375 "/></g></g></g><g clip-path="url(#11e1ae56e2)"><path stroke-linecap="butt" transform="matrix(2.460001, 0, 0, 2.460001, 26.80234, 170.589584)" fill="none" stroke-linejoin="miter" d="M -0.000633809 12.66524 L 125.399445 12.66524 " stroke="#29475e" stroke-width="4" stroke-opacity="1" stroke-miterlimit="4"/></g><g fill="#29475e" fill-opacity="1"><g transform="translate(144.80553, 211.589597)"><g><path d="M 19.34375 0.0625 L 18.65625 0 L 17.90625 -0.328125 L 17.25 -0.8125 L 17.046875 -1.40625 L 16.765625 -2.03125 L 16.140625 -2.5625 L 15.421875 -2.921875 L 14.6875 -2.828125 L 14.109375 -2.890625 L 10.890625 -2.859375 L 10.296875 -2.953125 L 8.921875 -2.828125 L 8.296875 -2.921875 L 7.609375 -2.5625 L 6.984375 -1.9375 L 6.390625 -0.859375 L 5.765625 -0.265625 L 5.015625 -0.03125 L 3.1875 0.03125 L 2.53125 -0.03125 L 1.25 0.03125 L 0.59375 -0.15625 L 0.421875 -0.984375 L 0.625 -1.640625 L 1.28125 -2.953125 L 1.4375 -3.546875 L 1.796875 -4 L 2.296875 -5.3125 L 2.890625 -6.359375 L 3.109375 -7.015625 L 3.4375 -7.515625 L 3.640625 -8.234375 L 6.984375 -15.25 L 7.1875 -15.84375 L 7.546875 -16.46875 L 7.703125 -17.125 L 8.0625 -17.609375 L 9.375 -20.625 L 9.671875 -21.09375 L 9.90625 -21.75 L 10.203125 -22.296875 L 10.796875 -22.859375 L 11.84375 -23.21875 L 12.921875 -22.890625 L 13.484375 -22.296875 L 14.109375 -21.15625 L 14.296875 -20.5625 L 14.65625 -19.96875 L 14.859375 -19.3125 L 17.015625 -14.765625 L 17.25 -14.0625 L 17.9375 -12.859375 L 18.140625 -12.328125 L 18.4375 -11.84375 L 18.625 -11.125 L 18.953125 -10.5 L 19.28125 -10 L 20.53125 -7.015625 L 21.1875 -5.84375 L 21.640625 -4.625 L 22.53125 -2.921875 L 23.015625 -1.703125 L 23.25 -0.953125 L 23.15625 -0.15625 L 22.234375 0 L 21.21875 0.03125 L 20.59375 -0.03125 Z M 11.90625 -8.09375 L 13.21875 -8.140625 L 13.703125 -8.390625 L 13.84375 -8.984375 L 12.296875 -12.59375 L 11.84375 -12.859375 L 11.484375 -12.5625 L 9.9375 -9.015625 L 9.96875 -8.390625 L 10.5 -8.171875 L 11.25 -8.234375 Z M 11.90625 -8.09375 "/></g></g></g><g fill="#29475e" fill-opacity="1"><g transform="translate(168.608941, 211.589597)"><g><path d="M 19.34375 -0.5625 L 18.859375 -0.984375 L 18 -1.9375 L 12.921875 -6.984375 L 12.359375 -7.34375 L 11.9375 -7.84375 L 9.609375 -10.0625 L 9.1875 -10.625 L 8.75 -10.796875 L 8.53125 -10.234375 L 8.46875 -9.578125 L 8.421875 -1.28125 L 8.09375 -0.265625 L 7.4375 0.0625 L 6.75 0.09375 L 5.484375 0 L 4.75 0.0625 L 3.40625 0 L 2.71875 -0.234375 L 2.421875 -0.859375 L 2.359375 -3.609375 L 2.421875 -4.234375 L 2.359375 -9.609375 L 2.453125 -10.171875 L 2.390625 -11.515625 L 2.421875 -12.0625 L 2.421875 -22 L 2.71875 -22.625 L 3.46875 -22.953125 L 4.453125 -22.734375 L 5.21875 -22.328125 L 5.703125 -21.9375 L 12.171875 -15.421875 L 13.09375 -14.6875 L 15.421875 -12.359375 L 15.90625 -12.140625 L 16.109375 -12.6875 L 16.171875 -18.5625 L 16.109375 -19.28125 L 16.203125 -20.65625 L 16.109375 -21.1875 L 16.140625 -21.875 L 16.5 -22.5625 L 17.125 -22.921875 L 21.1875 -22.953125 L 21.84375 -22.59375 L 22.171875 -21.9375 L 22.265625 -17.375 L 22.171875 -16.59375 L 22.171875 -13.34375 L 22.265625 -12.796875 L 22.203125 -0.8125 L 21.875 -0.15625 L 21.15625 0.0625 L 20.234375 -0.03125 Z M 19.34375 -0.5625 "/></g></g></g><g fill="#29475e" fill-opacity="1"><g transform="translate(193.330387, 211.589597)"><g><path d="M 10.09375 0.09375 L 8.75 -0.03125 L 8.09375 0.0625 L 4.09375 0 L 3.4375 0.0625 L 2.78125 -0.265625 L 2.453125 -1.28125 L 2.453125 -2.953125 L 2.390625 -3.578125 L 2.421875 -21.90625 L 2.71875 -22.59375 L 3.4375 -22.890625 L 4.09375 -22.859375 L 4.6875 -22.953125 L 12.171875 -22.890625 L 14.109375 -22.59375 L 14.796875 -22.4375 L 15.34375 -22.171875 L 16 -22.046875 L 16.625 -21.671875 L 18.296875 -20.5625 L 20.03125 -18.625 L 21.15625 -16.890625 L 21.421875 -16.265625 L 21.84375 -15.015625 L 22.296875 -12.4375 L 22.328125 -11.484375 L 22.234375 -10.421875 L 22.234375 -9.734375 L 22.140625 -9.078125 L 21.9375 -8.53125 L 21.8125 -7.84375 L 21.640625 -7.21875 L 21.125 -5.9375 L 20.734375 -5.40625 L 20.40625 -4.75 L 18.796875 -2.6875 L 16.59375 -1.21875 L 15.046875 -0.5625 L 13.703125 -0.328125 L 12.765625 -0.03125 L 12.109375 -0.03125 L 11.078125 0.09375 Z M 10 -5.28125 L 10.984375 -5.3125 L 12.390625 -5.484375 L 13.34375 -5.765625 L 14.46875 -6.5 L 15.671875 -7.875 L 16.234375 -9.078125 L 16.5625 -11.375 L 16.03125 -14.265625 L 15.75 -14.859375 L 15.421875 -15.421875 L 14.921875 -16 L 14.4375 -16.46875 L 13.9375 -16.828125 L 13.34375 -17.125 L 12.0625 -17.484375 L 11.125 -17.578125 L 9.734375 -17.546875 L 8.6875 -17.3125 L 8.359375 -16.5625 L 8.296875 -16 L 8.359375 -11.484375 L 8.234375 -9.84375 L 8.359375 -8.234375 L 8.328125 -6.890625 L 8.359375 -6.328125 L 8.625 -5.703125 L 9.375 -5.34375 Z M 10 -5.28125 "/></g></g></g></svg>